<?xml version="1.0" encoding="utf-8"?>
<!-- Generator: Adobe Illustrator 23.1.1, SVG Export Plug-In . SVG Version: 6.00 Build 0)  -->
<svg version="1.1"
	 id="Layer_1" xmlns:cc="http://web.resource.org/cc/" xmlns:dc="http://purl.org/dc/elements/1.1/" xmlns:rdf="http://www.w3.org/1999/02/22-rdf-syntax-ns#" xmlns:svg="http://www.w3.org/2000/svg"
	 xmlns="http://www.w3.org/2000/svg" xmlns:xlink="http://www.w3.org/1999/xlink" x="0px" y="0px" viewBox="0 0 1000 600"
	 style="enable-background:new 0 0 1000 600;" xml:space="preserve">
<style type="text/css">
	.st0{font-family:'Helvetica-Bold';}
	.st1{font-size:91.9306px;}
</style>
<path id="Star" d="M554.3,217.7l-54.4-37.1l-54.5,36.9l19.3-61.9l-52.8-39.2l66.3-1.2l21.9-61.1l21.7,61.2l66.3,1.4l-52.9,39
	L554.3,217.7z"/>
<text id="Text" transform="matrix(1 0 0 1 58.2349 536.707)" class="st0 st1">COME AND TAKE IT</text>
<g id="Needle">
	<path d="M389.9,353.5c-1.5,0-2.8,0-4.4,0c0,6.4,0,12.6,0,19.1c-9.1,0-18,0-27.2,0c0-13.4,0-26.6-0.1-40.1c-1.6,0-3,0-4.5,0.1
		c0,13.3,0,26.5,0,40c-9.2,0-18.3,0-27.7,0c0-6.4,0-12.7-0.1-19.2c-1.5,0-2.8,0-4.4-0.1c0,6.4,0,12.7,0,19.2c-9.4,0-18.5,0.1-27.6,0
		c-2.1,0-4.3-0.4-6.4-0.9c-7.8-2-13.6-6.3-16.5-14.2c0,8.7,0,17.4,0,26.6c-7.2,0-14.4,0-22,0.1c0-36.1,0-72.1-0.1-108.3
		c7.3,0,14.5,0,22,0c0,9.9,0,19.5,0,29.8c4.2-11.3,12.8-15.3,23.5-15.8c3.3-0.2,6.6,0,10,0c52.9,0,105.7-0.1,158.6-0.1
		c34.6,0,69.1,0,103.7,0c11.9,0,23.9,0,35.8,0c8,0,15,2.5,20.4,8.6c2.4,2.8,3.8,6.1,3.8,9.8c0,15.4,0.2,30.7,0,46.1
		c-0.1,7.7-5.1,12.4-11.5,15.6c-2,1-4.2,1.9-6.4,2.1c-6.9,0.5-13.9,0.7-21.1,1c0-6.8,0-13,0-19.4c-1.5,0-2.9,0-4.4,0
		c0,6.3,0,12.6-0.1,19.2c-9,0-18,0-27.2,0c0-13.4,0-26.6-0.1-40c-1.5,0-2.8,0-4.4,0c0,13.3,0,26.4,0,40c-9.2,0-18.3,0-27.7,0
		c0-6.4-0.1-12.6-0.1-19.1c-1.4,0-2.7-0.1-4.4-0.1c0,6.5-0.1,12.8-0.1,19.3c-9.2,0-18.2,0-27.7,0c0-14.1-0.1-28-0.1-42
		c-1.5,0-2.9-0.1-4.4-0.1c0,14.1-0.1,28-0.1,42.1c-9.3,0-18.3,0-27.7-0.1c0-6.4,0-12.6,0-19.1c-1.6,0-3,0-4.4,0.1
		c0,6.5,0,12.7,0,19.1c-9.3,0-18.5,0-27.8,0c0-13.3,0-26.5,0-40c-1.5,0-2.9,0-4.4,0c0,13.4,0,26.6,0,40c-10.8,0-21.5,0-32.5,0
		C389.9,366.3,389.9,360,389.9,353.5z"/>
	<path d="M244,310.5c0,13.1,0,25.9,0,39.2c-40.9,0-81.7,0-122.7,0.1c0,6.2,0,12.3-0.1,18.6c-4.5,0-8.9,0-13.9,0
		c0-25.4,0-50.7,0-76.2c4.5-0.1,9-0.1,13.8-0.2c0,6.2,0.1,12.3,0.1,18.6C162.3,310.5,203,310.5,244,310.5z"/>
	<path d="M747.8,333c-0.1,0.8-0.1,1.5-0.2,2.2c-0.3,0.1-0.5,0.2-0.8,0.2c-7,0-14,0-21,0c-0.7,0-1.6-0.2-2.1,0.2
		c-5.9,4.2-13,4.3-19.6,5.9c-13.6,3.3-27.3,6.4-40.9,9.5c-5.7,1.3-8.4-0.8-8.4-6.6c0-9.2,0-18.5,0-27.7c0-4.6,2.7-6.9,7.3-5.9
		c7.1,1.5,14.2,3.1,21.3,4.8c11.2,2.5,22.4,5,33.6,7.7c2,0.5,3.9,1.7,5.9,2.4c1,0.4,2,0.8,3,0.8c7.2,0.1,14.3,0,21.7,0
		c0.1,0.8,0.2,1.6,0.3,2.5c49.4,0,98.8,0,148.3-0.1c0,1.3,0,2.4,0.1,3.9C846.7,333,797.4,333,747.8,333z"/>
	<path d="M650.7,310c0,14.2,0,28.1,0,42.3c-6.6,0-13,0-19.9,0c0-14,0-28.1,0-42.3C637.5,310,644,310,650.7,310z"/>
</g>
</svg>
